<svg xmlns="http://www.w3.org/2000/svg" viewBox="55 55 150 150" width="150" height="150">
  <style>
    .vmup-d { display: none; }
    @media (prefers-color-scheme: dark) {
      .vmup-l { display: none; }
      .vmup-d { display: inline; }
    }
  </style>
  <g class="vmup-l" transform="translate(130,130) rotate(45) scale(1.02) translate(-60,-71)">
    <defs><linearGradient id="gl" gradientUnits="userSpaceOnUse" x1="60" y1="14" x2="60" y2="128"><stop offset="0%" stop-color="#542f83"></stop><stop offset="100%" stop-color="#b53694"></stop></linearGradient></defs>
    <polygon points="60,14 40,46 80,46" fill="url(#gl)"></polygon>
    <polygon points="40,48 40,90 60,90" fill="url(#gl)"></polygon>
    <polygon points="80,48 80,90 60,90" fill="url(#gl)"></polygon>
    <polygon points="50,98 70,98 60,128" fill="url(#gl)"></polygon>
  </g>
  <g class="vmup-d" transform="translate(130,130) rotate(45) scale(1.02) translate(-60,-71)">
    <defs><linearGradient id="gd" gradientUnits="userSpaceOnUse" x1="60" y1="14" x2="60" y2="128"><stop offset="0%" stop-color="#6f6fd6"></stop><stop offset="100%" stop-color="#5cb8e6"></stop></linearGradient></defs>
    <polygon points="60,14 40,46 80,46" fill="url(#gd)"></polygon>
    <polygon points="40,48 40,90 60,90" fill="url(#gd)"></polygon>
    <polygon points="80,48 80,90 60,90" fill="url(#gd)"></polygon>
    <polygon points="50,98 70,98 60,128" fill="url(#gd)"></polygon>
  </g>
</svg>
