<svg xmlns="http://www.w3.org/2000/svg" viewBox="0 0 1400 620" width="1400" height="620"><polygon points="890,29 895,35 890,40 885,35" fill="#b53694" opacity="0.22"/><polygon points="940,534 944,537 940,541 936,537" fill="#542f83" opacity="0.43"/><polygon points="317,310 320,313 317,316 315,313" fill="#b53694" opacity="0.17"/><polygon points="821,487 824,489 821,492 818,489" fill="#b53694" opacity="0.38"/><polygon points="483,101 492,110 483,120 473,110" fill="#542f83" opacity="0.13"/><polygon points="152,503 161,512 152,521 142,512" fill="#b53694" opacity="0.68"/><polygon points="749,578 756,584 749,591 742,584" fill="#b53694" opacity="0.52"/><polygon points="82,146 88,152 82,158 76,152" fill="#542f83" opacity="0.33"/><polygon points="157,172 167,181 157,190 148,181" fill="#542f83" opacity="0.32"/><polygon points="305,165 315,175 305,185 295,175" fill="#b53694" opacity="0.23"/><polygon points="253,438 257,443 253,448 248,443" fill="#b53694" opacity="0.38"/><polygon points="1075,150 1078,153 1075,156 1073,153" fill="#542f83" opacity="0.19"/><polygon points="307,555 319,567 307,579 295,567" fill="#b53694" opacity="0.51"/><polygon points="558,543 566,550 558,558 550,550" fill="#542f83" opacity="0.39"/><polygon points="1377,312 1381,316 1377,319 1373,316" fill="#542f83" opacity="0.36"/><polygon points="594,51 600,57 594,62 589,57" fill="#542f83" opacity="0.24"/><polygon points="1341,516 1344,519 1341,522 1338,519" fill="#b53694" opacity="0.74"/><polygon points="1204,184 1213,193 1204,202 1195,193" fill="#542f83" opacity="0.33"/><polygon points="1057,324 1066,333 1057,342 1048,333" fill="#542f83" opacity="0.21"/><polygon points="461,20 472,31 461,42 450,31" fill="#b53694" opacity="0.35"/><polygon points="1214,565 1218,569 1214,573 1210,569" fill="#542f83" opacity="0.64"/><polygon points="1054,460 1059,464 1054,468 1050,464" fill="#542f83" opacity="0.37"/><polygon points="380,519 388,526 380,533 373,526" fill="#542f83" opacity="0.39"/><polygon points="444,588 453,597 444,607 434,597" fill="#542f83" opacity="0.55"/><polygon points="480,357 484,361 480,365 476,361" fill="#542f83" opacity="0.11"/><polygon points="200,554 209,563 200,571 191,563" fill="#b53694" opacity="0.62"/><polygon points="152,263 159,270 152,277 145,270" fill="#b53694" opacity="0.34"/><polygon points="481,514 487,520 481,525 476,520" fill="#542f83" opacity="0.34"/><polygon points="623,511 631,520 623,528 614,520" fill="#b53694" opacity="0.28"/><polygon points="246,297 251,302 246,306 242,302" fill="#542f83" opacity="0.25"/><polygon points="1322,589 1331,597 1322,606 1313,597" fill="#542f83" opacity="0.74"/><polygon points="1037,45 1046,53 1037,61 1029,53" fill="#b53694" opacity="0.31"/><polygon points="829,407 833,412 829,416 825,412" fill="#b53694" opacity="0.13"/><polygon points="1291,128 1301,138 1291,149 1281,138" fill="#542f83" opacity="0.36"/><polygon points="450,453 453,456 450,460 447,456" fill="#b53694" opacity="0.3"/><polygon points="1375,57 1380,62 1375,68 1370,62" fill="#b53694" opacity="0.49"/><polygon points="1154,419 1163,428 1154,437 1145,428" fill="#b53694" opacity="0.5"/><polygon points="31,488 37,494 31,500 25,494" fill="#b53694" opacity="0.7"/><polygon points="203,83 207,87 203,91 199,87" fill="#542f83" opacity="0.4"/><polygon points="297,383 302,388 297,393 292,388" fill="#b53694" opacity="0.3"/><polygon points="1171,66 1178,74 1171,81 1163,74" fill="#542f83" opacity="0.33"/><polygon points="376,442 384,450 376,458 368,450" fill="#542f83" opacity="0.32"/><polygon points="1249,325 1261,336 1249,348 1238,336" fill="#542f83" opacity="0.4"/><polygon points="1243,470 1254,482 1243,493 1231,482" fill="#542f83" opacity="0.65"/><polygon points="359,70 369,80 359,89 350,80" fill="#542f83" opacity="0.33"/><polygon points="1022,204 1031,213 1022,222 1013,213" fill="#b53694" opacity="0.15"/></svg>